<svg xmlns="http://www.w3.org/2000/svg" xmlns:xlink="http://www.w3.org/1999/xlink" viewBox="0 0 280 250" preserveAspectRatio="xMidYMid" style="display: block; shape-rendering: auto; background: transparent;" width="280" height="250"><style type="text/css">
  .ld-text text {
    text-anchor: middle;
    dominant-baseline: middle;
    font-size: 42px;
    opacity: 0;
    user-select: none;
    pointer-events: none;
  }
</style>
<g style="transform-origin:140px 125px;transform:scale(1)" class="ld-text">
<g transform="translate(140,125)">
  <g transform="scale(0.5250) translate(0,0)"><g class="path" style="opacity: 1; transform-origin: -223.92px -0.07px; transform: matrix3d(0.91, 0, 0, 0, 0, 0.91, 0, 0, 0, 0, 0.91, 0, 0, 0, 0, 1); animation: 1s linear -0.605s infinite normal forwards running animate-ppnosd0djkh; transform-box: view-box;"><path d="M13.52 42.67Q10.96 40.27 8.64 39.03Q6.32 37.79 3 37.79Q-0.32 37.79-2.28 39.03Q-4.24 40.27-4.24 42.55Q-4.24 44.83-1.64 46.23Q0.96 47.63 4.48 47.63Q8 47.63 10.72 46.99L10.72 46.99Q12.32 45.55 13.52 42.67L13.52 42.67 zM27.04 50.79Q28.40 51.23 29.92 51.39Q31.44 51.55 33.96 51.55Q36.48 51.55 39.12 50.19Q41.76 48.83 43.32 47.03Q44.88 45.23 46.08 42.99L46.08 42.99Q47.60 40.35 48.32 37.71L48.32 37.71L50.24 38.35Q48.16 45.15 43.64 49.15Q39.12 53.15 33.12 53.15L33.12 53.15Q28.40 53.15 26.60 52.47Q24.80 51.79 24 51.59Q23.20 51.39 21.88 50.39Q20.56 49.39 20.32 49.23L20.32 49.23Q19.68 48.75 17.04 46.11L17.04 46.11Q11.92 49.15 6 49.15Q0.08 49.15-3.04 47.27Q-6.16 45.39-6.16 42.55Q-6.16 39.71-3.88 37.99Q-1.60 36.27 2.96 36.27L2.96 36.27Q9.20 36.27 14.16 40.91L14.16 40.91Q15.12 37.95 15.76 34.35L15.76 34.35L21.12 3.39Q23.04-8.61 29.44-12.77L29.44-12.77Q35.04-16.37 42.16-16.37Q49.28-16.37 53.80-12.29Q58.32-8.21 58.32 0.59L58.32 0.59L56.40 0.59Q56.40-6.53 53-10.25Q49.60-13.97 44.40-13.97L44.40-13.97Q34.88-13.97 33.12-2.13L33.12-2.13Q33.12-0.85 31.08 11.03Q29.04 22.91 27.44 30.67L27.44 30.67Q25.76 40.03 18.48 45.15L18.48 45.15Q22.80 49.47 24.88 50.11L24.88 50.11Q25.68 50.35 27.04 50.79" style="fill: rgba(0, 0, 0, 0);" transform="translate(-250.000,-18.457)"></path></g><g class="path" style="opacity: 1; transform-origin: -180.8px 3.25px; transform: matrix3d(0.91, 0, 0, 0, 0, 0.91, 0, 0, 0, 0, 0.91, 0, 0, 0, 0, 1); animation: 1s linear -0.55s infinite normal forwards running animate-ppnosd0djkh; transform-box: view-box;"><path d="M66.08 37.63Q59.92 37.63 56.72 34.55Q53.52 31.47 53.52 26.79Q53.52 22.11 54.36 18.79Q55.20 15.47 57.12 12.39Q59.04 9.31 62.92 7.55Q66.80 5.79 72.60 5.79Q78.40 5.79 81.64 8.87Q84.88 11.95 84.88 17.31L84.88 17.31Q84.88 26.43 80.04 32.03Q75.20 37.63 66.08 37.63L66.08 37.63 zM62.56 29.39L62.56 29.39Q62.56 35.79 66.28 35.79Q70 35.79 72.92 29.35Q75.84 22.91 75.84 14.03L75.84 14.03Q75.84 7.31 72.20 7.31Q68.56 7.31 65.56 13.43Q62.56 19.55 62.56 29.39" style="fill: rgba(0, 0, 0, 0);" transform="translate(-250.000,-18.457)"></path></g><g class="path" style="opacity: 1; transform-origin: -143.92px 3.25px; transform: matrix3d(0.91, 0, 0, 0, 0, 0.91, 0, 0, 0, 0, 0.91, 0, 0, 0, 0, 1); animation: 1s linear -0.495s infinite normal forwards running animate-ppnosd0djkh; transform-box: view-box;"><path d="M117.04 37.63L117.04 37.63Q110 37.63 109.36 31.47L109.36 31.47Q105.84 37.63 100.48 37.63Q95.12 37.63 91.96 34.39Q88.80 31.15 88.80 25.31L88.80 25.31Q88.80 16.19 93.28 10.99Q97.76 5.79 104.88 5.79L104.88 5.79Q110.72 5.79 112.64 11.31L112.64 11.31Q113.04 8.91 113.52 6.51L113.52 6.51Q119.44 6.51 122.32 6.03L122.32 6.03L123.36 5.79L117.84 36.03Q120.24 35.79 121.84 33.79L121.84 33.79L123.04 34.75Q120.64 37.63 117.04 37.63 zM97.84 29.39Q97.84 32.99 98.76 34.39Q99.68 35.79 101.60 35.79Q103.52 35.79 105.52 33.71L105.52 33.71Q108.16 30.99 109.76 26.83L109.76 26.83Q110 25.79 110.68 21.83Q111.36 17.87 111.84 15.31L111.84 15.31Q111.60 12.27 110.16 10.03Q108.72 7.79 106.56 7.79L106.56 7.79Q102.64 7.79 100.24 14.79Q97.84 21.79 97.84 29.39L97.84 29.39" style="fill: rgba(0, 0, 0, 0);" transform="translate(-250.000,-18.457)"></path></g><g class="path" style="opacity: 1; transform-origin: -104.36px -7.11px; transform: matrix3d(0.91, 0, 0, 0, 0, 0.91, 0, 0, 0, 0, 0.91, 0, 0, 0, 0, 1); animation: 1s linear -0.44s infinite normal forwards running animate-ppnosd0djkh; transform-box: view-box;"><path d="M155.28 37.63L155.28 37.63Q148.24 37.63 147.60 31.63L147.60 31.63Q144.08 37.63 138.64 37.63Q133.20 37.63 130.32 34.55Q127.44 31.47 127.44 26.11L127.44 26.11Q127.44 16.67 131.92 11.23Q136.40 5.79 143.52 5.79L143.52 5.79Q147.60 5.79 149.84 8.27L149.84 8.27Q150.80 9.55 151.04 10.19L151.04 10.19L155.36-13.33Q152.96-13.09 151.36-11.09L151.36-11.09L150.16-12.05Q152.56-14.93 156.20-14.93Q159.84-14.93 161.84-13.09Q163.84-11.25 163.84-7.89L163.84-7.89Q163.84-7.25 163.68-5.81L163.68-5.81Q159.76 16.19 156.08 36.03L156.08 36.03Q158.48 35.79 160.08 33.79L160.08 33.79L161.28 34.75Q158.88 37.63 155.28 37.63 zM136.48 29.39Q136.48 33.07 137.24 34.43Q138 35.79 139.64 35.79Q141.28 35.79 142.80 34.67Q144.32 33.55 145.36 31.79L145.36 31.79Q147.28 28.83 148.08 26.75L148.08 26.75L150.40 14.11Q150.24 11.55 148.72 9.43Q147.20 7.31 143.52 7.31L143.52 7.31Q140.96 7.31 138.72 14.83Q136.48 22.35 136.48 29.39L136.48 29.39" style="fill: rgba(0, 0, 0, 0);" transform="translate(-250.000,-18.457)"></path></g><g class="path" style="opacity: 1; transform-origin: -76.2px 3.25px; transform: matrix3d(0.91, 0, 0, 0, 0, 0.91, 0, 0, 0, 0, 0.91, 0, 0, 0, 0, 1); animation: 1s linear -0.385s infinite normal forwards running animate-ppnosd0djkh; transform-box: view-box;"><path d="M180.48 34.75Q178.08 37.63 174.48 37.63Q170.88 37.63 168.84 35.79Q166.80 33.95 166.80 30.99L166.80 30.99Q166.80 29.95 168.08 22.27L168.08 22.27L170.72 7.95L167.36 7.95L167.52 6.51L170.96 6.51Q176.88 6.51 179.68 6.03L179.68 6.03L180.80 5.79L175.28 36.03Q177.68 35.79 179.28 33.79L179.28 33.79L180.48 34.75" style="fill: rgba(0, 0, 0, 0);" transform="translate(-250.000,-18.457)"></path></g><g class="path" style="opacity: 1; transform-origin: -72.44px -24.47px; transform: matrix3d(0.91, 0, 0, 0, 0, 0.91, 0, 0, 0, 0, 0.91, 0, 0, 0, 0, 1); animation: 1s linear -0.33s infinite normal forwards running animate-ppnosd0djkh; transform-box: view-box;"><path d="M173.44-1.89Q171.76-3.57 171.76-5.97Q171.76-8.37 173.44-10.09Q175.12-11.81 177.52-11.81Q179.92-11.81 181.64-10.09Q183.36-8.37 183.36-5.97Q183.36-3.57 181.64-1.89Q179.92-0.21 177.52-0.21Q175.12-0.21 173.44-1.89" style="fill: rgba(0, 0, 0, 0);" transform="translate(-250.000,-18.457)"></path></g><g class="path" style="opacity: 1; transform-origin: -46.76px 3.25px; transform: matrix3d(0.91, 0, 0, 0, 0, 0.91, 0, 0, 0, 0, 0.91, 0, 0, 0, 0, 1); animation: 1s linear -0.275s infinite normal forwards running animate-ppnosd0djkh; transform-box: view-box;"><path d="M216 36.03L216 36.03Q217.92 36.03 220 33.79L220 33.79L221.20 34.75Q220.64 35.87 218.72 36.75Q216.80 37.63 214.48 37.63L214.48 37.63Q207.20 37.63 207.20 31.07L207.20 31.07Q207.20 28.27 208.64 21.07Q210.08 13.87 210.08 11.63L210.08 11.63Q210.08 8.19 206.80 8.19L206.80 8.19Q204.16 8.19 201.72 11.63Q199.28 15.07 197.68 21.07L197.68 21.07L194.96 36.03Q197.44 35.79 199.04 33.79L199.04 33.79L200.24 34.75Q197.84 37.63 194.24 37.63Q190.64 37.63 188.60 35.79Q186.56 33.95 186.56 30.99L186.56 30.99Q186.56 29.87 187.84 22.19L187.84 22.19L190.48 7.39Q188.08 7.63 186.48 9.63L186.48 9.63L185.28 8.67Q187.68 5.79 191.32 5.79Q194.96 5.79 196.96 7.63Q198.96 9.47 198.96 12.83L198.96 12.83L198.96 13.31Q202.24 5.79 209.20 5.79L209.20 5.79Q213.92 5.79 216.56 8.47Q219.20 11.15 219.20 15.87L219.20 15.87Q219.20 18.35 217.68 25.43Q216.16 32.51 216 36.03" style="fill: rgba(0, 0, 0, 0);" transform="translate(-250.000,-18.457)"></path></g><g class="path" style="opacity: 1; transform-origin: -8.88px 10.25px; transform: matrix3d(0.91, 0, 0, 0, 0, 0.91, 0, 0, 0, 0, 0.91, 0, 0, 0, 0, 1); animation: 1s linear -0.22s infinite normal forwards running animate-ppnosd0djkh; transform-box: view-box;"><path d="M251.28 45.63L251.28 45.63Q254.16 45.63 256.24 43.39L256.24 43.39L257.36 44.35Q255.44 47.07 251.28 47.07L251.28 47.07Q249.52 47.07 247.68 46.67L247.68 46.67Q242.24 51.63 233.76 51.63L233.76 51.63Q228.72 51.63 225.96 49.91Q223.20 48.19 223.20 45.43Q223.20 42.67 224.92 41.03Q226.64 39.39 231.04 39.39Q235.44 39.39 242.64 42.99L242.64 42.99L245.12 29.71Q241.52 36.35 235.84 36.35L235.84 36.35Q224.96 36.35 224.96 25.63L224.96 25.63Q224.96 16.67 229.48 11.23Q234 5.79 241.04 5.79L241.04 5.79Q245.12 5.79 247.36 8.27L247.36 8.27Q248 8.99 248.64 10.43L248.64 10.43L249.36 6.51Q255.28 6.51 258 6.03L258 6.03L259.04 5.79L253.76 35.31Q252.56 41.55 248.96 45.39L248.96 45.39Q250 45.63 251.28 45.63 zM234 28.11Q234 31.79 234.72 33.03Q235.44 34.27 237.44 34.27Q239.44 34.27 241.52 32.11Q243.60 29.95 244.52 28.07Q245.44 26.19 246.08 24.43L246.08 24.43L247.76 15.23L247.76 14.67Q247.76 7.31 241.04 7.31L241.04 7.31Q238.48 7.31 236.24 14.27Q234 21.23 234 28.11L234 28.11 zM233.44 50.03L233.44 50.03Q239.84 50.03 242.08 44.51L242.08 44.51L240.96 43.95Q240 43.47 239.80 43.35Q239.60 43.23 238.72 42.83Q237.84 42.43 237.44 42.31Q237.04 42.19 236.20 41.87Q235.36 41.55 234.80 41.43Q234.24 41.31 233.52 41.15L233.52 41.15Q232.32 40.91 230 40.91Q227.68 40.91 226.28 42.03Q224.88 43.15 224.88 45.31Q224.88 47.47 227.20 48.75Q229.52 50.03 233.44 50.03" style="fill: rgba(0, 0, 0, 0);" transform="translate(-250.000,-18.457)"></path></g><g class="path" style="opacity: 1; transform-origin: 81.36px 0.41px; transform: matrix3d(0.91, 0, 0, 0, 0, 0.91, 0, 0, 0, 0, 0.91, 0, 0, 0, 0, 1); animation: 1s linear -0.165s infinite normal forwards running animate-ppnosd0djkh; transform-box: view-box;"><path d="M368.64 45.87L368.64 45.87Q373.92 45.87 375.84 40.03L375.84 40.03L377.60 40.03Q377.52 40.35 377.40 40.91Q377.28 41.47 376.48 42.91Q375.68 44.35 374.48 45.47Q373.28 46.59 370.84 47.47Q368.40 48.35 365.28 48.35L365.28 48.35Q358.56 48.35 354.40 45.03Q350.24 41.71 347.36 34.99L347.36 34.99L336.24 5.47L328.16 20.19Q319.44 36.51 311.84 43.07Q304.24 49.63 293.92 49.63L293.92 49.63Q285.68 49.63 280.24 43.79L280.24 43.79Q276 39.07 276 32.19L276 32.19Q276 30.99 276.16 29.71L276.16 29.71L277.68 29.95Q277.60 30.99 277.60 32.03L277.60 32.03Q277.60 38.35 281.36 42.67L281.36 42.67Q286.08 48.03 293.92 48.03L293.92 48.03Q303.68 48.03 311.04 41.63Q318.40 35.23 326.88 19.39L326.88 19.39L340.48-5.41Q332.24-5.57 324.88-7.93Q317.52-10.29 311.44-10.29Q305.36-10.29 301.32-6.13Q297.28-1.97 297.28 4.67L297.28 4.67L295.76 4.67Q295.76-2.61 300.24-7.25Q304.72-11.89 311.76-11.89L311.76-11.89Q317.36-11.89 325.40-9.45Q333.44-7.01 342.64-7.01L342.64-7.01L355.44 27.79Q361.84 17.63 365.88 10.43Q369.92 3.23 372.36-0.53Q374.80-4.29 376.72-6.29L376.72-6.29Q381.12-10.77 386.72-10.77L386.72-10.77L386.72-9.17Q383.60-9.17 381-7.53Q378.40-5.89 375.56-2.01Q372.72 1.87 370.40 5.79Q368.08 9.71 363.92 16.87Q359.76 24.03 356.16 29.63L356.16 29.63Q358.48 35.31 360.20 38.67Q361.92 42.03 363.80 43.95Q365.68 45.87 368.64 45.87" style="fill: rgba(0, 0, 0, 0);" transform="translate(-250.000,-18.457)"></path></g><g class="path" style="opacity: 1; transform-origin: 145.92px 3.25px; transform: matrix3d(0.91, 0, 0, 0, 0, 0.91, 0, 0, 0, 0, 0.91, 0, 0, 0, 0, 1); animation: 1s linear -0.11s infinite normal forwards running animate-ppnosd0djkh; transform-box: view-box;"><path d="M399.44 5.79L399.44 5.79Q409.60 5.79 409.60 13.87L409.60 13.87Q409.60 18.91 404.84 21.51Q400.08 24.11 391.28 24.19L391.28 24.19Q391.12 27.07 391.12 28.75L391.12 28.75Q391.12 32.35 392.76 34.07Q394.40 35.79 396.88 35.79Q399.36 35.79 401.40 34.83Q403.44 33.87 404.64 32.55Q405.84 31.23 406.72 29.79L406.72 29.79Q408.32 27.15 408.32 26.43L408.32 26.43L409.76 27.07Q409.52 28.35 408.32 30.47Q407.12 32.59 405.68 33.95Q404.24 35.31 401.44 36.47Q398.64 37.63 395.20 37.63L395.20 37.63Q388.72 37.63 385.40 34.55Q382.08 31.47 382.08 26.11L382.08 26.11Q382.08 16.59 386.80 11.19Q391.52 5.79 399.44 5.79 zM407.60 13.87Q407.60 11.23 406.04 9.51Q404.48 7.79 401.40 7.79Q398.32 7.79 395.40 11.47Q392.48 15.15 391.52 22.35L391.52 22.35Q407.60 22.27 407.60 13.87L407.60 13.87" style="fill: rgba(0, 0, 0, 0);" transform="translate(-250.000,-18.457)"></path></g><g class="path" style="opacity: 1; transform-origin: 189.36px 3.25px; transform: matrix3d(0.91, 0, 0, 0, 0, 0.91, 0, 0, 0, 0, 0.91, 0, 0, 0, 0, 1); animation: 1s linear -0.055s infinite normal forwards running animate-ppnosd0djkh; transform-box: view-box;"><path d="M454.64 15.71Q452.96 14.03 452.96 11.63Q452.96 9.23 454.64 7.51Q456.32 5.79 458.44 5.79Q460.56 5.79 462.04 6.87Q463.52 7.95 464.16 9.63L464.16 9.63Q464.24 9.71 464.24 9.79L464.24 9.79L464.24 9.87Q465.20 11.95 465.20 15.59Q465.20 19.23 464.72 21.79Q464.24 24.35 462.96 27.23Q461.68 30.11 459.84 32.39Q458 34.67 454.92 36.15Q451.84 37.63 448.08 37.63L448.08 37.63Q441.68 37.63 438.48 32.99L438.48 32.99Q434.64 37.63 428 37.63L428 37.63Q422.88 37.63 419.64 34.43Q416.40 31.23 416.40 27.07Q416.40 22.91 417.88 16.79Q419.36 10.67 419.52 7.39L419.52 7.39Q418.24 7.47 417.04 8.31Q415.84 9.15 415.28 9.95L415.28 9.95L414.72 10.75L413.52 9.79Q413.76 9.31 414.24 8.67Q414.72 8.03 416.68 6.91Q418.64 5.79 421.60 5.79Q424.56 5.79 426.36 7.71Q428.16 9.63 428.16 12.59Q428.16 15.55 426.56 21.75Q424.96 27.95 424.96 30.47Q424.96 32.99 426.12 34.43Q427.28 35.87 429.44 35.87L429.44 35.87Q434.08 35.87 437.36 31.07L437.36 31.07Q436.48 28.83 436.48 25.87Q436.48 22.91 437.96 16.79Q439.44 10.67 439.60 7.39L439.60 7.39Q438.32 7.47 437.12 8.31Q435.92 9.15 435.36 9.95L435.36 9.95L434.80 10.75L433.60 9.79Q433.84 9.31 434.32 8.67Q434.80 8.03 436.76 6.91Q438.72 5.79 441.68 5.79Q444.64 5.79 446.44 7.71Q448.24 9.63 448.24 12.59Q448.24 15.55 446.64 21.75Q445.04 27.95 445.04 30.47Q445.04 32.99 446.20 34.43Q447.36 35.87 449.52 35.87L449.52 35.87Q454.88 35.87 459.12 30.07Q463.36 24.27 463.36 16.99L463.36 16.99Q463.36 16.43 463.20 15.31L463.20 15.31Q461.52 17.39 458.92 17.39Q456.32 17.39 454.64 15.71" style="fill: rgba(0, 0, 0, 0);" transform="translate(-250.000,-18.457)"></path></g><g class="path" style="opacity: 1; transform-origin: 230.48px 1.41px; transform: matrix3d(0.91, 0, 0, 0, 0, 0.91, 0, 0, 0, 0, 0.91, 0, 0, 0, 0, 1); animation: 1s linear 0s infinite normal forwards running animate-ppnosd0djkh; transform-box: view-box;"><path d="M476.56 35.55L476.56 35.55Q484.48 35.55 484.48 23.87L484.48 23.87Q484.48 20.99 483.64 17.07Q482.80 13.15 482.64 12.19L482.64 12.19Q477.76 17.23 471.68 18.27L471.68 18.27L471.68 16.35Q477.44 15.07 482.48 9.79L482.48 9.79L482.48 9.47Q482.48 7.55 483.04 5.71Q483.60 3.87 484.16 2.99L484.16 2.99L484.72 2.11L486.64 2.11Q486.64 5.63 487.76 8.55Q488.88 11.47 490.24 13.27Q491.60 15.07 492.72 17.99Q493.84 20.91 493.84 24.43L493.84 24.43Q493.84 30.11 489.56 33.87Q485.28 37.63 479.28 37.63Q473.28 37.63 470.20 34.91Q467.12 32.19 467.12 28.63Q467.12 25.07 468.88 23.51Q470.64 21.95 473.04 21.95Q475.44 21.95 477 23.51Q478.56 25.07 478.56 27.51Q478.56 29.95 477.04 31.63Q475.52 33.31 473.12 33.31L473.12 33.31Q472.08 33.31 470.96 32.99L470.96 32.99Q472.72 35.55 476.56 35.55" style="fill: rgba(0, 0, 0, 0);" transform="translate(-250.000,-18.457)"></path></g></g><text dy="0.35em" fill="rgba(0, 0, 0, 0)" font-family="Sail" font-size="42">Loading News</text>
</g>
</g><style type="text/css">@keyframes animate-ppnosd0djkh { 0.00% {transform: translate(0.00px,0.00px) rotate(0.00deg) scale(0.91, 0.91) skew(0deg, 0.00deg) ;opacity: 1.00;}4.00% {transform: translate(0.00px,0.00px) rotate(0.00deg) scale(0.91, 0.91) ;}8.00% {animation-timing-function: cubic-bezier(0.69,0.60,0.35,0.27);transform: translate(0.00px,0.00px) rotate(0.00deg) scale(0.91, 0.91) ;}14.00% {transform: translate(0.00px,0.00px) rotate(0.00deg) scale(0.93, 0.93) ;}18.00% {transform: translate(0.00px,0.00px) rotate(0.00deg) scale(0.94, 0.94) ;}22.00% {animation-timing-function: cubic-bezier(0.67,0.66,0.34,0.33);transform: translate(0.00px,0.00px) rotate(0.00deg) scale(0.96, 0.96) ;}26.00% {transform: translate(0.00px,0.00px) rotate(0.00deg) scale(0.97, 0.97) ;}30.00% {transform: translate(0.00px,0.00px) rotate(0.00deg) scale(0.99, 0.99) ;}34.00% {animation-timing-function: cubic-bezier(0.65,0.71,0.32,0.38);transform: translate(0.00px,0.00px) rotate(0.00deg) scale(1.01, 1.01) ;}40.00% {animation-timing-function: cubic-bezier(0.64,0.74,0.31,0.41);transform: translate(0.00px,0.00px) rotate(0.00deg) scale(1.02, 1.02) ;}46.00% {animation-timing-function: cubic-bezier(0.60,0.91,0.23,0.63);transform: translate(0.00px,0.00px) rotate(0.00deg) scale(1.03, 1.03) ;}50.00% {transform: translate(0.00px,0.00px) rotate(0.00deg) scale(1.03, 1.03) ;}54.00% {transform: translate(0.00px,0.00px) rotate(0.00deg) scale(1.03, 1.03) ;}58.00% {animation-timing-function: cubic-bezier(0.69,0.60,0.35,0.27);transform: translate(0.00px,0.00px) rotate(0.00deg) scale(1.03, 1.03) ;}64.00% {transform: translate(0.00px,0.00px) rotate(0.00deg) scale(1.01, 1.01) ;}68.00% {transform: translate(0.00px,0.00px) rotate(0.00deg) scale(1.00, 1.00) ;}72.00% {animation-timing-function: cubic-bezier(0.67,0.66,0.34,0.33);transform: translate(0.00px,0.00px) rotate(0.00deg) scale(0.98, 0.98) ;}76.00% {animation-timing-function: cubic-bezier(0.66,0.68,0.33,0.35);transform: translate(0.00px,0.00px) rotate(0.00deg) scale(0.97, 0.97) ;}82.00% {animation-timing-function: cubic-bezier(0.65,0.71,0.32,0.38);transform: translate(0.00px,0.00px) rotate(0.00deg) scale(0.94, 0.94) ;}88.00% {animation-timing-function: cubic-bezier(0.65,0.73,0.31,0.40);transform: translate(0.00px,0.00px) rotate(0.00deg) scale(0.92, 0.92) ;}94.00% {animation-timing-function: cubic-bezier(0.63,0.80,0.28,0.48);transform: translate(0.00px,0.00px) rotate(0.00deg) scale(0.91, 0.91) ;}100.00% {animation-timing-function: cubic-bezier(0.63,0.80,0.28,0.48);transform: translate(0.00px,0.00px) rotate(0.00deg) scale(0.91, 0.91) ;} }</style><!-- [ldio] generated by https://loading.io --></svg>